Coordinates
version=1
nRows=33
nColumns=38
inDegrees=no

Units are S.I. units (second, meters, Newtons, ...)
If the header above contains a line with 'inDegrees', this indicates whether rotational values are in degrees (yes) or radians (no).

endheader
time	pelvis_tilt	pelvis_list	pelvis_rotation	pelvis_tx	pelvis_ty	pelvis_tz	hip_flexion_r	hip_adduction_r	hip_rotation_r	knee_angle_r	ankle_angle_r	subtalar_angle_r	mtp_angle_r	hip_flexion_l	hip_adduction_l	hip_rotation_l	knee_angle_l	ankle_angle_l	subtalar_angle_l	mtp_angle_l	lumbar_extension	lumbar_bending	lumbar_rotation	arm_flex_r	arm_add_r	arm_rot_r	elbow_flex_r	pro_sup_r	wrist_flex_r	wrist_dev_r	arm_flex_l	arm_add_l	arm_rot_l	elbow_flex_l	pro_sup_l	wrist_flex_l	wrist_dev_l
6.315	-0.000421358	0.0465899	3.10825	0.0594831	0.921593	0.0182957	0.275259	0.145812	-0.00981064	0.759305	0.392106	0	0	0.288776	-0.0949212	-0.0639399	1.25281	0.0626495	0	0	-0.349751	0.0890549	0.113076	0.195006	-0.492829	0.575209	2.03937	1.3388	0	0	-0.0283618	-0.493325	0.680239	1.81201	1.34336	0	0
6.32499	0.004729	0.0404578	3.10532	0.0589262	0.92459	0.0177235	0.246579	0.14046	-0.00117919	0.740937	0.388677	0	0	0.320434	-0.0912323	-0.067325	1.23026	0.0890332	0	0	-0.344191	0.0786235	0.1292	0.228934	-0.48686	0.587307	2.0558	1.34147	0	0	-0.0658028	-0.506971	0.658765	1.81154	1.34876	0	0
6.33498	0.0106485	0.0335147	3.10256	0.0581659	0.928276	0.0171841	0.217548	0.133968	0.00785233	0.719032	0.377797	0	0	0.349618	-0.0860442	-0.0711678	1.19805	0.112888	0	0	-0.336959	0.0672249	0.14582	0.259504	-0.481502	0.598838	2.07238	1.34326	0	0	-0.101805	-0.52069	0.638301	1.81316	1.35314	0	0
6.34498	0.0171228	0.0259925	3.09996	0.0571861	0.932574	0.0166803	0.188464	0.126524	0.016975	0.69445	0.359287	0	0	0.375829	-0.0795204	-0.0752773	1.1565	0.134042	0	0	-0.328299	0.0552179	0.162707	0.286924	-0.476853	0.610276	2.08855	1.34422	0	0	-0.136402	-0.534196	0.61868	1.81647	1.35647	0	0
6.35497	0.0239586	0.0181653	3.09749	0.0559744	0.937387	0.016213	0.159614	0.118376	0.0258816	0.668026	0.333197	0	0	0.398698	-0.0718764	-0.0793666	1.10613	0.152443	0	0	-0.318469	0.0429796	0.179568	0.311461	-0.472951	0.622094	2.10384	1.34443	0	0	-0.169755	-0.547201	0.599619	1.82115	1.3588	0	0
6.36496	0.0309916	0.0103473	3.09516	0.054523	0.942605	0.0157834	0.131269	0.109834	0.034296	0.640538	0.299807	0	0	0.418009	-0.0633804	-0.0830756	1.04768	0.168181	0	0	-0.307724	0.0308989	0.196087	0.333397	-0.469785	0.634716	2.11782	1.34399	0	0	-0.202107	-0.559419	0.580775	1.82695	1.36023	0	0
6.37495	0.0380867	0.00287844	3.09299	0.0528284	0.948103	0.0153939	0.103674	0.101255	0.041989	0.612704	0.259632	0	0	0.433696	-0.0543431	-0.0860025	0.982112	0.181484	0	0	-0.296314	0.0193658	0.211958	0.352985	-0.467314	0.648465	2.13017	1.34301	0	0	-0.233725	-0.57058	0.56182	1.8337	1.3609	0	0
6.38494	0.0451322	-0.0038979	3.09099	0.0508931	0.953754	0.0150495	0.0770563	0.0930174	0.0487814	0.585194	0.213409	0	0	0.445843	-0.045097	-0.0877398	0.910611	0.192695	0	0	-0.284462	0.00875901	0.22692	0.370419	-0.465488	0.663528	2.14067	1.3416	0	0	-0.26483	-0.580446	0.542504	1.84127	1.36095	0	0
6.39494	0.0520347	-0.00966294	3.08922	0.0487264	0.959422	0.0147579	0.0516239	0.0854849	0.0545413	0.558647	0.162069	0	0	0.454671	-0.0359705	-0.0879183	0.83457	0.202201	0	0	-0.272366	-0.000574973	0.240771	0.385821	-0.464259	0.679933	2.14918	1.33989	0	0	-0.295536	-0.588829	0.522713	1.84955	1.36049	0	0
6.40493	0.0587204	-0.0141507	3.0877	0.0463444	0.964975	0.014529	0.027586	0.0789722	0.0591733	0.533698	0.10669	0	0	0.460538	-0.0272672	-0.0862591	0.755587	0.210378	0	0	-0.260188	-0.0083484	0.253404	0.399212	-0.463599	0.697529	2.15566	1.33804	0	0	-0.325785	-0.595617	0.502523	1.85844	1.35964	0	0
6.41492	0.0651479	-0.0171682	3.08652	0.0437695	0.970279	0.0143747	0.00517732	0.0737161	0.0625914	0.511001	0.0485042	0	0	0.46393	-0.0192436	-0.0826068	0.675434	0.217544	0	0	-0.248042	-0.0143551	0.264829	0.410468	-0.463516	0.715947	2.16015	1.33632	0	0	-0.355299	-0.600791	0.482248	1.86781	1.35848	0	0
6.42491	0.0712972	-0.0186182	3.08573	0.0410296	0.975207	0.0143072	-0.015347	0.0698468	0.0646983	0.491233	-0.0111857	0	0	0.465428	-0.0120869	-0.0769723	0.595995	0.223932	0	0	-0.236013	-0.0184937	0.275105	0.419408	-0.464026	0.734714	2.16276	1.3349	0	0	-0.383661	-0.604421	0.462329	1.87754	1.35705	0	0
6.43491	0.0771645	-0.0185041	3.08541	0.0381583	0.979638	0.0143371	-0.0337146	0.0673752	0.0653777	0.475083	-0.071064	0	0	0.465664	-0.0059106	-0.0695726	0.519204	0.229685	0	0	-0.224169	-0.0207797	0.284331	0.42582	-0.465145	0.753296	2.16363	1.33392	0	0	-0.410343	-0.606653	0.443296	1.88749	1.35544	0	0
6.4449	0.0827506	-0.0169267	3.08562	0.0351934	0.983462	0.0144727	-0.0496536	0.0661898	0.0644896	0.463232	-0.12985	0	0	0.465278	-0.000751607	-0.0608367	0.446973	0.234857	0	0	-0.212578	-0.0213443	0.292635	0.429496	-0.466883	0.771139	2.16289	1.33343	0	0	-0.434741	-0.607692	0.425731	1.8975	1.35367	0	0
6.45489	0.0880461	-0.014075	3.08641	0.0321755	0.986581	0.01472	-0.0629169	0.0660622	0.0618713	0.456324	-0.186333	0	0	0.464871	0.0034356	-0.0513684	0.381117	0.239397	0	0	-0.201323	-0.0204238	0.300153	0.430252	-0.469233	0.787705	2.16068	1.33339	0	0	-0.456214	-0.607779	0.410224	1.90743	1.3518	0	0
6.46488	0.0930115	-0.0102087	3.08781	0.0291462	0.988914	0.0150828	-0.0733174	0.0666664	0.0573512	0.454927	-0.239409	0	0	0.464956	0.00677673	-0.0418771	0.323288	0.243126	0	0	-0.190527	-0.0183378	0.307	0.427963	-0.472168	0.802512	2.15711	1.33371	0	0	-0.474127	-0.607157	0.397328	1.91711	1.34986	0	0
6.47487	0.0975583	-0.0056371	3.08985	0.0261475	0.990397	0.0155625	-0.0807654	0.0676059	0.0507768	0.459486	-0.288127	0	0	0.465915	0.00946675	-0.0330949	0.274914	0.245721	0	0	-0.180371	-0.0154636	0.313261	0.422588	-0.475629	0.815155	2.15224	1.3342	0	0	-0.487889	-0.60605	0.387524	1.9264	1.34786	0	0
6.48487	0.101536	-0.00069896	3.09255	0.0232187	0.990987	0.0161575	-0.0853008	0.0684434	0.0420479	0.470283	-0.33172	0	0	0.467957	0.0117521	-0.0256866	0.237131	0.246744	0	0	-0.171107	-0.0122107	0.318974	0.414173	-0.479525	0.82532	2.14607	1.33465	0	0	-0.496983	-0.604646	0.381199	1.93515	1.34579	0	0
6.49486	0.10473	0.00425534	3.09591	0.020395	0.990661	0.0168626	-0.0871054	0.0687309	0.0311426	0.487403	-0.369617	0	0	0.471099	0.0139113	-0.0201482	0.210718	0.245695	0	0	-0.163054	-0.00899986	0.324138	0.402845	-0.483731	0.832781	2.13855	1.33486	0	0	-0.50098	-0.603085	0.378645	1.94326	1.34357	0	0
6.50485	0.106878	0.00887904	3.09994	0.0177067	0.989419	0.0176686	-0.086488	0.0680399	0.0181352	0.510748	-0.401407	0	0	0.475164	0.0162326	-0.0167275	0.196061	0.242099	0	0	-0.156574	-0.00624372	0.328709	0.388804	-0.488088	0.837393	2.12958	1.33464	0	0	-0.499547	-0.601454	0.380063	1.95061	1.34106	0	0
6.51484	0.107686	0.0128392	3.10463	0.0151795	0.987282	0.0185614	-0.0838566	0.0659879	0.00321714	0.540052	-0.426778	0	0	0.479815	0.0189924	-0.0154019	0.193143	0.235623	0	0	-0.152059	-0.00433429	0.332592	0.372322	-0.492405	0.839107	2.11901	1.33384	0	0	-0.492467	-0.599785	0.385541	1.95711	1.33813	0	0
6.52483	0.106862	0.0158293	3.10998	0.0128339	0.984297	0.0195217	-0.0796685	0.0622667	-0.0132887	0.574929	-0.44546	0	0	0.484603	0.0224293	-0.0159306	0.201593	0.226208	0	0	-0.149883	-0.00362782	0.335648	0.353735	-0.496458	0.837967	2.10664	1.33239	0	0	-0.479659	-0.598044	0.395046	1.96267	1.33465	0	0
6.53483	0.104139	0.0175922	3.11596	0.0106859	0.980531	0.0205255	-0.0743787	0.0566773	-0.0309237	0.614913	-0.457188	0	0	0.489042	0.0267152	-0.0179643	0.220752	0.214221	0	0	-0.150382	-0.00441767	0.337686	0.33344	-0.500002	0.834115	2.09223	1.33034	0	0	-0.461187	-0.596129	0.408405	1.96723	1.33052	0	0
6.54482	0.0993167	0.0179507	3.12252	0.00874758	0.976075	0.0215442	-0.0683739	0.0491685	-0.0491006	0.659479	-0.461698	0	0	0.492683	0.0319171	-0.021167	0.249752	0.2006	0	0	-0.153802	-0.00689765	0.338475	0.311884	-0.50278	0.827793	2.07553	1.32784	0	0	-0.43728	-0.593869	0.425299	1.9707	1.32575	0	0
6.55481	0.092321	0.0168299	3.12957	0.00702762	0.971038	0.0225462	-0.0618868	0.0398482	-0.0671492	0.708048	-0.4588	0	0	0.495182	0.0379769	-0.0252797	0.287544	0.186872	0	0	-0.160236	-0.0111402	0.337832	0.289439	-0.504573	0.819229	2.05633	1.32515	0	0	-0.408233	-0.591065	0.445378	1.973	1.32036	0	0
6.5648	0.0832227	0.0142507	3.137	0.00553425	0.965545	0.0235006	-0.0549633	0.0289598	-0.0843863	0.75996	-0.448498	0	0	0.496269	0.0447492	-0.0300586	0.332829	0.174968	0	0	-0.169609	-0.0171018	0.335606	0.266405	-0.505211	0.808647	2.0345	1.32258	0	0	-0.37441	-0.587499	0.46826	1.97403	1.31444	0	0
6.57479	0.0722427	0.0103163	3.1447	0.0042772	0.959738	0.0243809	-0.0474651	0.0168478	-0.100185	0.814451	-0.431111	0	0	0.495719	0.0520459	-0.0352376	0.384043	0.166912	0	0	-0.181683	-0.0246386	0.331664	0.243021	-0.504585	0.79628	2.01001	1.32048	0	0	-0.336243	-0.582937	0.493515	1.9737	1.30813	0	0
6.58479	0.0597387	0.00519986	3.15254	0.00326768	0.953774	0.0251667	-0.0390973	0.0039223	-0.11403	0.870654	-0.407314	0	0	0.493312	0.0596712	-0.0405007	0.439366	0.164456	0	0	-0.196076	-0.0335216	0.325874	0.219471	-0.50265	0.782387	1.98295	1.31915	0	0	-0.294251	-0.577152	0.520649	1.97197	1.30161	0	0
6.59478	0.0461851	-0.000864785	3.16042	0.00251567	0.947812	0.0258455	-0.0294449	-0.00937818	-0.125567	0.927612	-0.378061	0	0	0.488813	0.0674432	-0.0454863	0.496725	0.168727	0	0	-0.212286	-0.0434488	0.318109	0.195894	-0.499439	0.767263	1.95359	1.31883	0	0	-0.249042	-0.569936	0.549098	1.96885	1.29518	0	0
6.60477	0.0321489	-0.00757926	3.16822	0.00202462	0.942013	0.0264123	-0.0180124	-0.0226075	-0.134607	0.984313	-0.344461	0	0	0.482001	0.075168	-0.0498754	0.553899	0.179989	0	0	-0.2297	-0.0540408	0.308282	0.172369	-0.495075	0.751238	1.92238	1.31958	0	0	-0.201324	-0.561127	0.578246	1.96442	1.28917	0	0
6.61476	0.0182564	-0.0145749	3.17579	0.00178627	0.936524	0.0268702	-0.00427319	-0.0353216	-0.1411	1.03972	-0.30764	0	0	0.472745	0.0825974	-0.0534664	0.608735	0.197664	0	0	-0.247607	-0.0648304	0.296397	0.148903	-0.489796	0.734668	1.88999	1.3213	0	0	-0.151895	-0.550628	0.607443	1.95892	1.28396	0	0
6.62475	0.00513986	-0.0214435	3.18293	0.00177983	0.93147	0.0272328	0.0122687	-0.0471143	-0.145097	1.09283	-0.268629	0	0	0.461042	0.0894491	-0.0561504	0.659353	0.22061	0	0	-0.265228	-0.0752883	0.282576	0.125435	-0.483962	0.71791	1.8573	1.32366	0	0	-0.101607	-0.538414	0.636057	1.95265	1.27991	0	0
6.63475	-0.00663948	-0.027789	3.18943	0.00197441	0.926958	0.0275254	0.0319877	-0.0576613	-0.146742	1.14267	-0.228287	0	0	0.447001	0.0954701	-0.057841	0.704292	0.247427	0	0	-0.281794	-0.0848742	0.26704	0.101848	-0.47804	0.701286	1.82532	1.3262	0	0	-0.0512989	-0.52454	0.663529	1.94601	1.2773	0	0
